<?xml version="1.0" encoding="UTF-8" standalone="no"?>
<svg viewBox="0 0 50 50"
 xmlns="http://www.w3.org/2000/svg" xmlns:xlink="http://www.w3.org/1999/xlink" version="1.2" baseProfile="tiny">
<title>Qt SVG Document</title>
<desc>Generated with Qt</desc>
<defs>
</defs>
<g fill="none" stroke="black" stroke-width="1" fill-rule="evenodd" stroke-linecap="square" stroke-linejoin="bevel" >

<g fill="#000000" fill-opacity="1" stroke="none" transform="matrix(2.27273,0,0,2.27273,-104.545,0)"
font-family="Noto Sans" font-size="10" font-weight="400" font-style="normal" 
opacity="0.00100002" >
<rect x="46" y="0" width="22" height="22"/>
</g>

<g fill="#ffffff" fill-opacity="1" stroke="none" transform="matrix(2.27273,0,0,2.27273,-104.545,0)"
font-family="Noto Sans" font-size="10" font-weight="400" font-style="normal" 
opacity="0.19" >
<circle cx="57" cy="11" r="11"/>
</g>

<g fill="#dfdfdf" fill-opacity="1" stroke="none" transform="matrix(2.27273,0,0,2.27273,-104.545,0)"
font-family="Noto Sans" font-size="10" font-weight="400" font-style="normal" 
>
<path vector-effect="none" fill-rule="nonzero" d="M52,6 L52,7.41406 L55.5859,11 L52,14.5859 L52,16 L53.4141,16 L57,12.4141 L60.5859,16 L62,16 L62,14.5859 L58.4141,11 L62,7.41406 L62,6 L60.5859,6 L57,9.58594 L53.4141,6 L52,6"/>
</g>

<g fill="none" stroke="#000000" stroke-opacity="1" stroke-width="1" stroke-linecap="square" stroke-linejoin="bevel" transform="matrix(1,0,0,1,0,0)"
font-family="Noto Sans" font-size="10" font-weight="400" font-style="normal" 
>
</g>
</g>
</svg>
