<?xml version="1.0" encoding="UTF-8" standalone="no"?>
<svg viewBox="0 0 50 50"
 xmlns="http://www.w3.org/2000/svg" xmlns:xlink="http://www.w3.org/1999/xlink" version="1.2" baseProfile="tiny">
<title>Qt SVG Document</title>
<desc>Generated with Qt</desc>
<defs>
</defs>
<g fill="none" stroke="black" stroke-width="1" fill-rule="evenodd" stroke-linecap="square" stroke-linejoin="bevel" >

<g fill="#000000" fill-opacity="1" stroke="none" transform="matrix(2.27273,0,0,2.27273,-52.2727,0)"
font-family="Noto Sans" font-size="10" font-weight="400" font-style="normal" 
opacity="0.00100002" >
<rect x="23" y="0" width="22" height="22"/>
</g>

<g fill="#ffffff" fill-opacity="1" stroke="none" transform="matrix(2.27273,0,0,2.27273,-52.2727,0)"
font-family="Noto Sans" font-size="10" font-weight="400" font-style="normal" 
opacity="0.08" >
<circle cx="34" cy="11" r="11"/>
</g>

<g fill="#dfdfdf" fill-opacity="1" stroke="none" transform="matrix(2.27273,0,0,2.27273,-47.7273,-63.6364)"
font-family="Noto Sans" font-size="10" font-weight="400" font-style="normal" 
>
<path vector-effect="none" fill-rule="evenodd" d="M27,36 L27,44 L35,44 L35,36 L27,36 M29,38 L33,38 L33,42 L29,42 L29,38"/>
</g>

<g fill="#dfdfdf" fill-opacity="1" stroke="none" transform="matrix(2.27273,0,0,2.27273,-47.7273,-63.6364)"
font-family="Noto Sans" font-size="10" font-weight="400" font-style="normal" 
>
<path vector-effect="none" fill-rule="evenodd" d="M29,34 L29,36 L30,36 L30,35 L36,35 L36,41 L35,41 L35,42 L37,42 L37,34 L29,34"/>
</g>

<g fill="none" stroke="#000000" stroke-opacity="1" stroke-width="1" stroke-linecap="square" stroke-linejoin="bevel" transform="matrix(1,0,0,1,0,0)"
font-family="Noto Sans" font-size="10" font-weight="400" font-style="normal" 
>
</g>
</g>
</svg>
