<?xml version="1.0" encoding="UTF-8" standalone="no"?>
<svg viewBox="0 0 50 50"
 xmlns="http://www.w3.org/2000/svg" xmlns:xlink="http://www.w3.org/1999/xlink" version="1.2" baseProfile="tiny">
<title>Qt SVG Document</title>
<desc>Generated with Qt</desc>
<defs>
</defs>
<g fill="none" stroke="black" stroke-width="1" fill-rule="evenodd" stroke-linecap="square" stroke-linejoin="bevel" >

<g fill="#000000" fill-opacity="1" stroke="none" transform="matrix(2.27273,0,0,2.27273,-52.2727,0)"
font-family="Noto Sans" font-size="10" font-weight="400" font-style="normal" 
opacity="0.00100002" >
<rect x="23" y="0" width="22" height="22"/>
</g>

<g fill="#ffffff" fill-opacity="1" stroke="none" transform="matrix(2.27273,0,0,2.27273,-52.2727,0)"
font-family="Noto Sans" font-size="10" font-weight="400" font-style="normal" 
opacity="0.08" >
<circle cx="34" cy="11" r="11"/>
</g>

<g fill="#dfdfdf" fill-opacity="1" stroke="none" transform="matrix(2.27273,0,0,2.27273,-52.2727,0)"
font-family="Noto Sans" font-size="10" font-weight="400" font-style="normal" 
>
<path vector-effect="none" fill-rule="nonzero" d="M29,6 L29,7.41406 L32.5859,11 L29,14.5859 L29,16 L30.4141,16 L34,12.4141 L37.5859,16 L39,16 L39,14.5859 L35.4141,11 L39,7.41406 L39,6 L37.5859,6 L34,9.58594 L30.4141,6 L29,6"/>
</g>

<g fill="none" stroke="#000000" stroke-opacity="1" stroke-width="1" stroke-linecap="square" stroke-linejoin="bevel" transform="matrix(1,0,0,1,0,0)"
font-family="Noto Sans" font-size="10" font-weight="400" font-style="normal" 
>
</g>
</g>
</svg>
